<svg id="Livello_1" data-name="Livello 1" xmlns="http://www.w3.org/2000/svg" viewBox="0 0 96 96"><title>Tavola disegno 1</title><path d="M75.4,28.1A30,30,0,0,0,16,34a14.8,14.8,0,0,0,.1,2.1A18,18,0,0,0,18,72H38a2,2,0,0,0,0-4H18a14,14,0,0,1-.1-28h.4a2.8,2.8,0,0,0,1.5-.6,2,2,0,0,0,.5-1.6A28.7,28.7,0,0,1,20,34a26,26,0,0,1,51.7-3.7A2.2,2.2,0,0,0,74,32a18,18,0,0,1,0,36H54a2,2,0,0,0,0,4H74a22,22,0,0,0,1.4-43.9Z" style="fill:#010101"/><path d="M45.5,57.4a1.7,1.7,0,0,0-1.7,1.8V90l-4.1-4a1.6,1.6,0,0,0-2.4,0,1.8,1.8,0,0,0,0,2.5l7,7a1.8,1.8,0,0,0,1.2.5h.7a1.9,1.9,0,0,0,1.1-1.7v-35A1.8,1.8,0,0,0,45.5,57.4Z" style="fill:#010101"/><path d="M53.8,86.2a1.6,1.6,0,0,0-2.4,0l-6.9,6.9a1.6,1.6,0,0,0,0,2.4,1.8,1.8,0,0,0,1.2.5,1.7,1.7,0,0,0,1.2-.5l6.9-6.9A1.6,1.6,0,0,0,53.8,86.2Z" style="fill:#010101"/><circle cx="45.7" cy="47.5" r="3.6" style="fill:#f8981d"/><path d="M54.4,44.3,58,41a17.1,17.1,0,0,0-24.1-.8l3.3,3.5a12.3,12.3,0,0,1,17.2.6Z" style="fill:#f8981d"/><path d="M64.2,35.2a25.6,25.6,0,0,0-36.1-1.3l3.3,3.6a20.7,20.7,0,0,1,29.2,1Z" style="fill:#f8981d"/></svg>